<?xml version="1.0" standalone="no"?>
<!DOCTYPE svg PUBLIC "-//W3C//DTD SVG 20010904//EN"
 "http://www.w3.org/TR/2001/REC-SVG-20010904/DTD/svg10.dtd">
<svg version="1.0" xmlns="http://www.w3.org/2000/svg"
 width="100.000000pt" height="100.000000pt" viewBox="0 0 100.000000 100.000000"
 preserveAspectRatio="xMidYMid meet">

<g transform="translate(0.000000,100.000000) scale(0.100000,-0.100000)"
fill="#000000" stroke="none">
<path d="M460 731 c-128 -42 -204 -168 -171 -286 9 -34 8 -41 -12 -61 -12 -12
-38 -30 -57 -41 -67 -38 -48 -84 34 -81 l51 1 -55 6 c-47 5 -55 9 -58 28 -2
17 6 26 35 39 21 10 44 26 51 36 16 21 35 23 51 4 6 -7 22 -11 36 -8 18 3 27
-1 32 -14 4 -11 13 -24 21 -30 25 -19 10 -48 -28 -55 l-35 -6 32 -2 c17 0 34
3 37 8 4 6 21 5 43 -1 78 -21 174 11 233 79 18 21 43 41 54 45 18 5 18 6 3 7
-14 1 -17 6 -11 23 4 12 10 45 14 73 4 27 8 42 9 32 1 -14 4 -15 20 -6 22 15
49 6 58 -18 4 -10 15 -24 25 -31 41 -30 15 -71 -46 -74 l-41 -1 38 -4 c41 -5
77 16 77 44 0 8 -17 35 -37 60 -28 34 -42 44 -60 40 -25 -5 -42 11 -68 63 -24
48 -63 88 -109 112 -43 22 -128 32 -166 19z m148 -27 c176 -73 176 -335 0
-408 -55 -23 -168 -20 -168 4 0 5 24 6 54 3 30 -3 69 0 90 7 79 26 137 105
135 185 l-1 40 -8 -46 c-14 -83 -53 -134 -122 -164 -70 -29 -135 -14 -196 43
-61 57 -77 133 -43 207 29 65 104 115 171 115 37 0 94 -24 127 -53 20 -18 34
-25 31 -17 -2 8 -23 28 -46 44 -89 63 -212 39 -276 -52 -37 -52 -46 -129 -22
-186 19 -46 16 -54 -9 -26 -24 26 -32 124 -15 175 16 49 66 104 115 126 49 23
133 24 183 3z"/>
<path d="M507 614 c-4 -4 -7 -27 -7 -50 l0 -43 -42 -3 c-31 -2 -44 -8 -46 -20
-3 -15 4 -18 42 -18 l45 0 3 -47 c2 -35 7 -48 18 -48 11 0 16 13 18 48 l3 47
45 0 c38 0 45 3 42 18 -2 12 -15 18 -45 20 l-42 3 -3 46 c-3 44 -15 62 -31 47z
m23 -59 l0 -45 45 0 c25 0 45 -4 45 -10 0 -5 -20 -10 -45 -10 l-45 0 0 -50 c0
-27 -4 -50 -10 -50 -5 0 -10 23 -10 50 l0 50 -45 0 c-25 0 -45 5 -45 10 0 6
20 10 45 10 l45 0 0 45 c0 25 5 45 10 45 6 0 10 -20 10 -45z"/>
<path d="M692 575 c6 -14 13 -23 16 -21 7 7 -9 46 -18 46 -5 0 -4 -11 2 -25z"/>
</g>
</svg>
