<?xml version="1.0" encoding="iso-8859-1"?>
<!-- Uploaded to: SVG Repo, www.svgrepo.com, Generator: SVG Repo Mixer Tools -->
<svg height="800px" width="800px" version="1.1" id="Layer_1" xmlns="http://www.w3.org/2000/svg" xmlns:xlink="http://www.w3.org/1999/xlink" 
	 viewBox="0 0 512 512" xml:space="preserve">
<path style="fill:#FFF173;" d="M196.487,121.533v99.478h270.325c19.324,0,34.989,15.665,34.989,34.989
	c0,19.324-15.665,34.989-34.989,34.989H196.487v99.478c0,14.309-11.601,25.91-25.91,25.91c-6.872,0-13.462-2.73-18.322-7.589
	L17.788,274.322c-5.06-5.06-7.589-11.69-7.589-18.322c0-6.632,2.529-13.262,7.589-18.322l134.467-134.467
	c4.859-4.859,11.45-7.589,18.322-7.589C184.886,95.623,196.487,107.223,196.487,121.533z"/>
<g>
	<path style="fill:#248A9C;" d="M170.577,426.577c-9.644,0-18.712-3.756-25.533-10.575L10.577,281.534
		C3.756,274.712,0,265.644,0,256c0-9.644,3.756-18.712,10.577-25.533L145.043,96c6.821-6.821,15.889-10.577,25.534-10.577
		c19.911,0,36.109,16.198,36.109,36.109v89.279H466.81c24.919,0,45.19,20.271,45.19,45.189c0,24.918-20.271,45.189-45.189,45.189
		H206.686v89.279C206.686,410.378,190.487,426.577,170.577,426.577z M170.577,105.822c-4.196,0-8.142,1.635-11.11,4.603L25,244.891
		c-2.967,2.967-4.602,6.913-4.602,11.109c0,4.196,1.635,8.142,4.602,11.111l134.466,134.466c2.967,2.967,6.913,4.602,11.11,4.602
		c8.663,0,15.711-7.048,15.711-15.711V290.99c0-5.632,4.566-10.199,10.199-10.199H466.81c13.67-0.001,24.791-11.122,24.791-24.791
		c0-13.669-11.121-24.79-24.79-24.79H196.487c-5.633,0-10.199-4.567-10.199-10.199v-99.478
		C186.287,112.869,179.24,105.822,170.577,105.822z"/>
	<path style="fill:#248A9C;" d="M122.39,181.772c-2.61,0-5.221-0.996-7.212-2.987c-3.983-3.983-3.983-10.441,0-14.425l2.266-2.266
		c3.983-3.982,10.441-3.982,14.425,0c3.983,3.983,3.983,10.441,0,14.425l-2.266,2.266C127.611,180.776,125,181.772,122.39,181.772z"
		/>
	<path style="fill:#248A9C;" d="M39.777,264.552c-2.611,0-5.22-0.996-7.212-2.987c-3.983-3.983-3.983-10.441,0-14.425l59.666-59.666
		c3.984-3.982,10.441-3.981,14.425,0c3.983,3.983,3.983,10.441,0,14.425L46.99,261.565
		C44.998,263.556,42.387,264.552,39.777,264.552z"/>
</g>
</svg>